<svg width="31" height="31" viewBox="0 0 31 31" fill="none" xmlns="http://www.w3.org/2000/svg">
<path d="M30.997 9.15657C30.997 9.15453 30.9961 9.15249 30.9961 9.15003C30.9957 9.12551 30.9919 9.10139 30.9884 9.07687C30.9863 9.06052 30.9859 9.04376 30.982 9.02741C30.9782 9.01147 30.9713 8.99553 30.9666 8.97959C30.9593 8.95629 30.9525 8.93258 30.9422 8.9101C30.9414 8.90806 30.9409 8.90602 30.9401 8.90397C28.3054 3.32877 22.8065 0 16.2312 0C7.28145 0 0 6.95347 0 15.5002C0 24.0469 7.28145 31 16.2312 31C19.6316 31 22.8878 30.0059 25.6467 28.1262C25.9356 27.93 26.0023 27.5466 25.7965 27.2711C25.591 26.9952 25.1891 26.9314 24.9011 27.128C22.3605 28.8586 19.3629 29.7738 16.2312 29.7738C7.98936 29.7738 1.28398 23.3705 1.28398 15.5002C1.28398 7.62952 7.98936 1.22622 16.2312 1.22622C22.3331 1.22622 27.2375 4.16832 29.713 9.29881L29.716 17.5668C29.716 19.3902 28.1628 20.8739 26.254 20.8739C24.3914 20.8739 22.6961 19.2483 22.6297 17.4344C22.824 16.8217 22.931 16.1726 22.931 15.5002C22.931 11.8142 19.7908 8.81568 15.9316 8.81568C12.0724 8.81568 8.93222 11.8142 8.93222 15.5002C8.93222 19.1862 12.072 22.1847 15.9316 22.1847C18.3635 22.1847 20.5077 20.9928 21.7626 19.1903C22.5424 20.8669 24.3083 22.1001 26.254 22.1001C28.8707 22.1001 31 20.0662 31 17.5664L30.997 9.15657ZM15.9316 20.9585C12.7803 20.9585 10.2162 18.5102 10.2162 15.5002C10.2162 12.4907 12.7803 10.0419 15.9316 10.0419C19.0829 10.0419 21.6471 12.4907 21.6471 15.5002C21.6471 16.041 21.5615 16.5625 21.4074 17.0563C21.3804 17.109 21.3607 17.165 21.35 17.2247C20.5921 19.391 18.4517 20.9585 15.9316 20.9585Z" fill="#FAA365"/>
</svg>
